<mxfile host="app.diagrams.net" modified="2023-07-14T09:58:08.866Z" agent="Mozilla/5.0 (Windows NT 10.0; Win64; x64) AppleWebKit/537.36 (KHTML, like Gecko) Chrome/114.0.0.0 Safari/537.36" version="21.6.2" etag="G9E2ISGSjdV97if881zt" type="github">
  <diagram name="第 1 页" id="Htt4Dr1cWpc25qfoG5rK">
    <mxGraphModel>
      <root>
        <mxCell id="0" />
        <mxCell id="1" parent="0" />
      </root>
    </mxGraphModel>
  </diagram>
</mxfile>
